<svg width="165" height="165" viewBox="0 0 165 165" fill="none" xmlns="http://www.w3.org/2000/svg">
<g id="&#236;&#139;&#177;&#237;&#134;&#160;&#235;&#166;&#172; &#235;&#161;&#156;&#234;&#179;&#160; 4">
<path id="Vector" d="M42.2354 132.008H38.6222C37.7911 132.008 37.1173 131.334 37.1173 130.503V36.3199C37.1173 35.4888 37.7911 34.815 38.6222 34.815H42.2338C43.0649 34.815 43.7387 35.4888 43.7387 36.3199V130.503C43.7402 131.334 43.0665 132.008 42.2354 132.008Z" fill="#EB6464"/>
<path id="Vector_2" d="M136.855 122.545H133.244C132.413 122.545 131.739 121.871 131.739 121.04V34.7707C131.739 33.9396 132.413 33.2658 133.244 33.2658H136.855C137.686 33.2658 138.36 33.9396 138.36 34.7707V121.038C138.36 121.869 137.686 122.545 136.855 122.545Z" fill="#EB6464"/>
<path id="Vector_3" d="M52.9436 77.9045H49.2876C48.4458 77.9045 47.7644 77.2231 47.7644 76.3813V27.2938C47.7644 26.452 48.4458 25.7706 49.2876 25.7706H52.9436C53.7854 25.7706 54.4668 26.452 54.4668 27.2938V76.3813C54.4668 77.2231 53.7854 77.9045 52.9436 77.9045Z" fill="url(#paint0_linear_13_243)"/>
<path id="Vector_4" d="M65.2163 86.1621H61.5603C60.7185 86.1621 60.0371 85.4807 60.0371 84.6389V15.6658C60.0371 14.824 60.7185 14.1426 61.5603 14.1426H65.2163C66.0581 14.1426 66.7395 14.824 66.7395 15.6658V84.6389C66.741 85.4792 66.0581 86.1621 65.2163 86.1621Z" fill="url(#paint1_linear_13_243)"/>
<path id="Vector_5" d="M77.4904 93.0417H73.8345C72.9927 93.0417 72.3113 92.3603 72.3113 91.5185V17.0531C72.3113 16.2113 72.9927 15.5299 73.8345 15.5299H77.4904C78.3323 15.5299 79.0136 16.2113 79.0136 17.0531V91.5185C79.0136 92.3588 78.3307 93.0417 77.4904 93.0417Z" fill="url(#paint2_linear_13_243)"/>
<path id="Vector_6" d="M89.763 100.351H86.1071C85.2652 100.351 84.5839 99.6692 84.5839 98.8274V25.7706C84.5839 24.9288 85.2652 24.2474 86.1071 24.2474H89.763C90.6048 24.2474 91.2862 24.9288 91.2862 25.7706V98.8274C91.2862 99.6692 90.6033 100.351 89.763 100.351Z" fill="url(#paint3_linear_13_243)"/>
<path id="Vector_7" d="M102.036 93.0417H98.3798C97.538 93.0417 96.8566 92.3603 96.8566 91.5185V17.0531C96.8566 16.2113 97.538 15.5299 98.3798 15.5299H102.036C102.878 15.5299 103.559 16.2113 103.559 17.0531V91.5185C103.559 92.3588 102.878 93.0417 102.036 93.0417Z" fill="url(#paint4_linear_13_243)"/>
<path id="Vector_8" d="M115.772 86.1621H112.116C111.274 86.1621 110.593 85.4807 110.593 84.6389V15.6658C110.593 14.824 111.274 14.1426 112.116 14.1426H115.772C116.614 14.1426 117.295 14.824 117.295 15.6658V84.6389C117.295 85.4792 116.614 86.1621 115.772 86.1621Z" fill="url(#paint5_linear_13_243)"/>
<path id="Vector_9" d="M126.581 77.9045H122.925C122.083 77.9045 121.402 77.2231 121.402 76.3813V27.2938C121.402 26.452 122.083 25.7706 122.925 25.7706H126.581C127.423 25.7706 128.104 26.452 128.104 27.2938V76.3813C128.104 77.2231 127.423 77.9045 126.581 77.9045Z" fill="url(#paint6_linear_13_243)"/>
<path id="Vector_10" d="M29.2646 150.016C40.2994 150.016 49.2449 143.055 49.2449 134.469C49.2449 125.883 40.2994 118.922 29.2646 118.922C18.2298 118.922 9.2843 125.883 9.2843 134.469C9.2843 143.055 18.2298 150.016 29.2646 150.016Z" fill="#EB6464"/>
<path id="Vector_11" d="M124.92 149.551C135.955 149.551 144.9 142.591 144.9 134.004C144.9 125.418 135.955 118.458 124.92 118.458C113.885 118.458 104.94 125.418 104.94 134.004C104.94 142.591 113.885 149.551 124.92 149.551Z" fill="#EB6464"/>
</g>
<defs>
<linearGradient id="paint0_linear_13_243" x1="51.1164" y1="77.9047" x2="51.1164" y2="25.7702" gradientUnits="userSpaceOnUse">
<stop offset="5.32779e-09" stop-color="#C30D23"/>
<stop offset="1" stop-color="#EB6464"/>
</linearGradient>
<linearGradient id="paint1_linear_13_243" x1="63.3893" y1="86.1616" x2="63.3893" y2="14.1427" gradientUnits="userSpaceOnUse">
<stop offset="5.32779e-09" stop-color="#C30D23"/>
<stop offset="1" stop-color="#EB6464"/>
</linearGradient>
<linearGradient id="paint2_linear_13_243" x1="75.6622" y1="93.0411" x2="75.6622" y2="15.5292" gradientUnits="userSpaceOnUse">
<stop offset="5.32779e-09" stop-color="#C30D23"/>
<stop offset="1" stop-color="#EB6464"/>
</linearGradient>
<linearGradient id="paint3_linear_13_243" x1="87.935" y1="100.35" x2="87.935" y2="24.2469" gradientUnits="userSpaceOnUse">
<stop offset="5.32779e-09" stop-color="#C30D23"/>
<stop offset="1" stop-color="#EB6464"/>
</linearGradient>
<linearGradient id="paint4_linear_13_243" x1="100.208" y1="93.0411" x2="100.208" y2="15.5292" gradientUnits="userSpaceOnUse">
<stop offset="5.32779e-09" stop-color="#C30D23"/>
<stop offset="1" stop-color="#EB6464"/>
</linearGradient>
<linearGradient id="paint5_linear_13_243" x1="113.944" y1="86.1616" x2="113.944" y2="14.1427" gradientUnits="userSpaceOnUse">
<stop offset="5.32779e-09" stop-color="#C30D23"/>
<stop offset="1" stop-color="#EB6464"/>
</linearGradient>
<linearGradient id="paint6_linear_13_243" x1="124.754" y1="77.9047" x2="124.754" y2="25.7702" gradientUnits="userSpaceOnUse">
<stop offset="5.32779e-09" stop-color="#C30D23"/>
<stop offset="1" stop-color="#EB6464"/>
</linearGradient>
</defs>
</svg>
