<svg width="83" height="83" viewBox="0 0 83 83" fill="none" xmlns="http://www.w3.org/2000/svg">
<circle cx="41.5" cy="41.5" r="41.5" fill="#FF6767"/>
<path d="M58.25 44.2861H44.2916V58.2444C44.2916 58.9848 43.9975 59.6949 43.474 60.2184C42.9504 60.742 42.2404 61.0361 41.5 61.0361C40.7596 61.0361 40.0495 60.742 39.526 60.2184C39.0024 59.6949 38.7083 58.9848 38.7083 58.2444V44.2861H24.75C24.0096 44.2861 23.2995 43.992 22.776 43.4684C22.2524 42.9449 21.9583 42.2348 21.9583 41.4944C21.9583 40.754 22.2524 40.0439 22.776 39.5204C23.2995 38.9969 24.0096 38.7028 24.75 38.7028H38.7083V24.7444C38.7083 24.004 39.0024 23.2939 39.526 22.7704C40.0495 22.2469 40.7596 21.9528 41.5 21.9528C42.2404 21.9528 42.9504 22.2469 43.474 22.7704C43.9975 23.2939 44.2916 24.004 44.2916 24.7444V38.7028H58.25C58.9904 38.7028 59.7004 38.9969 60.224 39.5204C60.7475 40.0439 61.0416 40.754 61.0416 41.4944C61.0416 42.2348 60.7475 42.9449 60.224 43.4684C59.7004 43.992 58.9904 44.2861 58.25 44.2861Z" fill="white"/>
</svg>
