<svg width="36" height="36" viewBox="0 0 36 36" fill="none" xmlns="http://www.w3.org/2000/svg">
<g id="&#236;&#139;&#177;&#237;&#134;&#160;&#235;&#166;&#172; &#235;&#161;&#156;&#234;&#179;&#160; 6">
<path id="Vector" d="M9.21499 28.8017H8.42666C8.24533 28.8017 8.09833 28.6547 8.09833 28.4733V7.92434C8.09833 7.74301 8.24533 7.59601 8.42666 7.59601H9.21466C9.39599 7.59601 9.54299 7.74301 9.54299 7.92434V28.4733C9.54333 28.6547 9.39633 28.8017 9.21499 28.8017Z" fill="#EB6464"/>
<path id="Vector_2" d="M29.8593 26.737H29.0713C28.89 26.737 28.743 26.59 28.743 26.4087V7.58633C28.743 7.405 28.89 7.258 29.0713 7.258H29.8593C30.0406 7.258 30.1876 7.405 30.1876 7.58633V26.4083C30.1876 26.5897 30.0406 26.737 29.8593 26.737Z" fill="#EB6464"/>
<path id="Vector_3" d="M11.5513 16.9973H10.7537C10.57 16.9973 10.4213 16.8487 10.4213 16.665V5.95501C10.4213 5.77135 10.57 5.62268 10.7537 5.62268H11.5513C11.735 5.62268 11.8837 5.77135 11.8837 5.95501V16.665C11.8837 16.8487 11.735 16.9973 11.5513 16.9973Z" fill="url(#paint0_linear_13_267)"/>
<path id="Vector_4" d="M14.229 18.799H13.4313C13.2477 18.799 13.099 18.6504 13.099 18.4667V3.41803C13.099 3.23436 13.2477 3.08569 13.4313 3.08569H14.229C14.4127 3.08569 14.5613 3.23436 14.5613 3.41803V18.4667C14.5617 18.65 14.4127 18.799 14.229 18.799Z" fill="url(#paint1_linear_13_267)"/>
<path id="Vector_5" d="M16.907 20.3H16.1093C15.9256 20.3 15.777 20.1513 15.777 19.9676V3.72064C15.777 3.53697 15.9256 3.38831 16.1093 3.38831H16.907C17.0906 3.38831 17.2393 3.53697 17.2393 3.72064V19.9676C17.2393 20.151 17.0903 20.3 16.907 20.3Z" fill="url(#paint2_linear_13_267)"/>
<path id="Vector_6" d="M19.5846 21.8947H18.787C18.6033 21.8947 18.4547 21.746 18.4547 21.5623V5.62268C18.4547 5.43901 18.6033 5.29034 18.787 5.29034H19.5846C19.7683 5.29034 19.917 5.43901 19.917 5.62268V21.5623C19.917 21.746 19.768 21.8947 19.5846 21.8947Z" fill="url(#paint3_linear_13_267)"/>
<path id="Vector_7" d="M22.2623 20.3H21.4647C21.281 20.3 21.1323 20.1513 21.1323 19.9676V3.72064C21.1323 3.53697 21.281 3.38831 21.4647 3.38831H22.2623C22.446 3.38831 22.5947 3.53697 22.5947 3.72064V19.9676C22.5947 20.151 22.446 20.3 22.2623 20.3Z" fill="url(#paint4_linear_13_267)"/>
<path id="Vector_8" d="M25.2593 18.799H24.4617C24.278 18.799 24.1293 18.6504 24.1293 18.4667V3.41803C24.1293 3.23436 24.278 3.08569 24.4617 3.08569H25.2593C25.443 3.08569 25.5917 3.23436 25.5917 3.41803V18.4667C25.5917 18.65 25.443 18.799 25.2593 18.799Z" fill="url(#paint5_linear_13_267)"/>
<path id="Vector_9" d="M27.6177 16.9973H26.82C26.6363 16.9973 26.4877 16.8487 26.4877 16.665V5.95501C26.4877 5.77135 26.6363 5.62268 26.82 5.62268H27.6177C27.8013 5.62268 27.95 5.77135 27.95 5.95501V16.665C27.95 16.8487 27.8013 16.9973 27.6177 16.9973Z" fill="url(#paint6_linear_13_267)"/>
<path id="Vector_10" d="M6.38503 32.7307C8.79262 32.7307 10.7444 31.212 10.7444 29.3387C10.7444 27.4653 8.79262 25.9467 6.38503 25.9467C3.97744 25.9467 2.0257 27.4653 2.0257 29.3387C2.0257 31.212 3.97744 32.7307 6.38503 32.7307Z" fill="#EB6464"/>
<path id="Vector_11" d="M27.2553 32.6293C29.6629 32.6293 31.6147 31.1107 31.6147 29.2373C31.6147 27.364 29.6629 25.8453 27.2553 25.8453C24.8477 25.8453 22.896 27.364 22.896 29.2373C22.896 31.1107 24.8477 32.6293 27.2553 32.6293Z" fill="#EB6464"/>
</g>
<defs>
<linearGradient id="paint0_linear_13_267" x1="11.1527" y1="16.9974" x2="11.1527" y2="5.6226" gradientUnits="userSpaceOnUse">
<stop offset="5.32779e-09" stop-color="#C30D23"/>
<stop offset="1" stop-color="#EB6464"/>
</linearGradient>
<linearGradient id="paint1_linear_13_267" x1="13.8304" y1="18.7989" x2="13.8304" y2="3.0857" gradientUnits="userSpaceOnUse">
<stop offset="5.32779e-09" stop-color="#C30D23"/>
<stop offset="1" stop-color="#EB6464"/>
</linearGradient>
<linearGradient id="paint2_linear_13_267" x1="16.5081" y1="20.2998" x2="16.5081" y2="3.38816" gradientUnits="userSpaceOnUse">
<stop offset="5.32779e-09" stop-color="#C30D23"/>
<stop offset="1" stop-color="#EB6464"/>
</linearGradient>
<linearGradient id="paint3_linear_13_267" x1="19.1858" y1="21.8947" x2="19.1858" y2="5.29023" gradientUnits="userSpaceOnUse">
<stop offset="5.32779e-09" stop-color="#C30D23"/>
<stop offset="1" stop-color="#EB6464"/>
</linearGradient>
<linearGradient id="paint4_linear_13_267" x1="21.8635" y1="20.2998" x2="21.8635" y2="3.38816" gradientUnits="userSpaceOnUse">
<stop offset="5.32779e-09" stop-color="#C30D23"/>
<stop offset="1" stop-color="#EB6464"/>
</linearGradient>
<linearGradient id="paint5_linear_13_267" x1="24.8606" y1="18.7989" x2="24.8606" y2="3.0857" gradientUnits="userSpaceOnUse">
<stop offset="5.32779e-09" stop-color="#C30D23"/>
<stop offset="1" stop-color="#EB6464"/>
</linearGradient>
<linearGradient id="paint6_linear_13_267" x1="27.219" y1="16.9974" x2="27.219" y2="5.6226" gradientUnits="userSpaceOnUse">
<stop offset="5.32779e-09" stop-color="#C30D23"/>
<stop offset="1" stop-color="#EB6464"/>
</linearGradient>
</defs>
</svg>
