<svg width="24" height="24" viewBox="0 0 24 24" fill="none" xmlns="http://www.w3.org/2000/svg">
<path d="M11.7 16.8C12.0978 16.8 12.4794 16.958 12.7607 17.2393C13.042 17.5206 13.2 17.9022 13.2 18.3C13.2 18.6978 13.042 19.0793 12.7607 19.3607C12.4794 19.642 12.0978 19.8 11.7 19.8C11.3022 19.8 10.9207 19.642 10.6394 19.3606C10.358 19.0793 10.2 18.6978 10.2 18.3C10.2 17.9022 10.358 17.5206 10.6394 17.2393C10.9207 16.958 11.3022 16.8 11.7 16.8ZM11.7 10.8C12.0978 10.8 12.4794 10.958 12.7607 11.2393C13.042 11.5206 13.2 11.9022 13.2 12.3C13.2 12.6978 13.042 13.0793 12.7607 13.3606C12.4794 13.642 12.0978 13.8 11.7 13.8C11.3022 13.8 10.9207 13.642 10.6394 13.3606C10.358 13.0793 10.2 12.6978 10.2 12.3C10.2 11.9022 10.358 11.5206 10.6394 11.2393C10.9207 10.958 11.3022 10.8 11.7 10.8ZM11.7 4.79999C12.0978 4.79999 12.4794 4.95802 12.7607 5.23933C13.042 5.52063 13.2 5.90216 13.2 6.29999C13.2 6.69781 13.042 7.07934 12.7607 7.36065C12.4794 7.64195 12.0978 7.79999 11.7 7.79999C11.3022 7.79999 10.9207 7.64195 10.6394 7.36065C10.358 7.07934 10.2 6.69781 10.2 6.29999C10.2 5.90216 10.358 5.52063 10.6394 5.23933C10.9207 4.95802 11.3022 4.79999 11.7 4.79999Z" fill="#B0B0B0"/>
</svg>
